<svg xmlns="http://www.w3.org/2000/svg" viewBox="0 0 512 512" fill="#000000" aria-hidden="true" id="Envelope--Streamline-Heroicons" height="512" width="512"><desc>Envelope Streamline Icon: https://streamlinehq.com</desc><path d="M32 184.95999999999998v183.04a64 64 0 0 0 64 64h320a64 64 0 0 0 64 -64V184.95999999999998l-190.464 117.184a64 64 0 0 1 -67.072 0L32 184.95999999999998Z" stroke-width="21.3333"></path><path d="M480 147.37066666666666V144a64 64 0 0 0 -64 -64h-320a64 64 0 0 0 -64 64v3.3706666666666667l207.232 127.53066666666666a32 32 0 0 0 33.536 0L480 147.37066666666666Z" stroke-width="21.3333"></path></svg>