<svg xmlns="http://www.w3.org/2000/svg" viewBox="0 0 512 512" id="Letterboxd--Streamline-Font-Awesome" height="512" width="512"><desc>Letterboxd Streamline Icon: https://streamlinehq.com</desc><!--! Font Awesome Free 6.5.2 by @fontawesome - https://fontawesome.com License - https://fontawesome.com/license/free (Icons: CC BY 4.0, Fonts: SIL OFL 1.1, Code: MIT License) Copyright 2024 Fonticons, Inc.--><path d="M413.8192 163.01760000000002C465.24960000000004 163.01760000000002 506.88000000000005 204.64800000000002 506.88000000000005 256s-41.6304 92.9824 -93.0608 92.9824c-33.32 0 -62.4848 -17.4832 -78.9488 -43.7472 8.937600000000002 -14.268799999999999 14.112000000000002 -31.1248 14.112000000000002 -49.2352s-5.1744 -34.9664 -14.112000000000002 -49.2352l0.6272000000000001 -0.9408c16.3072 -25.3232 44.531200000000005 -42.257600000000004 76.75359999999999 -42.806400000000004h1.568Zm-157.81920000000002 0c33.32 0 62.4848 17.4832 78.9488 43.7472 -8.937600000000002 14.268799999999999 -14.112000000000002 31.1248 -14.112000000000002 49.2352s5.1744 34.9664 14.112000000000002 49.2352l-0.6272000000000001 0.9408c-16.3072 25.3232 -44.531200000000005 42.257600000000004 -76.75359999999999 42.806400000000004H256c-33.32 0 -62.4848 -17.4832 -78.9488 -43.7472 8.937600000000002 -14.268799999999999 14.112000000000002 -31.1248 14.112000000000002 -49.2352s-5.1744 -34.9664 -14.112000000000002 -49.2352l0.6272000000000001 -0.9408c16.3072 -25.3232 44.531200000000005 -42.257600000000004 76.75359999999999 -42.806400000000004H256Zm-157.81920000000002 0c33.32 0 62.4848 17.4832 78.9488 43.7472 -8.937600000000002 14.268799999999999 -14.112000000000002 31.1248 -14.112000000000002 49.2352s5.1744 34.9664 14.112000000000002 49.2352l-0.6272000000000001 0.9408c-16.3072 25.3232 -44.531200000000005 42.257600000000004 -76.75359999999999 42.806400000000004h-1.568C46.750400000000006 348.904 5.120000000000001 307.35200000000003 5.120000000000001 256s41.6304 -92.9824 93.0608 -92.9824Z" fill="#000000" stroke-width="0.8"></path></svg>