<svg viewBox="0 0 512 512" fill="none" xmlns="http://www.w3.org/2000/svg" id="Github--Streamline-Unicons" height="512" width="512"><desc>Github Streamline Icon: https://streamlinehq.com</desc><path d="M255.99786666666665 11.310933333333333c-59.571200000000005 0.0021333333333333334 -117.19893333333331 21.2032 -162.56853333333333 59.80586666666666C48.057599999999994 109.71946666666665 17.90293333333333 163.20853333333332 8.360533333333333 222.01173333333332c-9.542399999999999 58.801066666666664 2.1504 119.08053333333334 32.9856 170.05226666666664 30.833066666666667 50.96746666666667 78.79893333333334 89.30346666666665 135.31306666666666 108.14506666666666 12.543999999999999 2.1952 17.247999999999998 -5.3312 17.247999999999998 -11.916799999999999 0 -5.958399999999999 -0.3136 -25.7152 -0.3136 -46.7264 -63.03359999999999 11.603200000000001 -79.3408 -15.364266666666666 -84.35839999999999 -29.476266666666664 -5.568 -13.723733333333332 -14.3936 -25.885866666666665 -25.7152 -35.4368 -8.7808 -4.704 -21.3248 -16.307199999999998 -0.3136 -16.6208 8.023466666666666 0.8704000000000001 15.716266666666666 3.662933333333333 22.432000000000002 8.138666666666666 6.7136 4.4757333333333325 12.251733333333334 10.506666666666666 16.1408 17.57653333333333 3.4303999999999997 6.1632 8.044799999999999 11.590399999999999 13.576533333333332 15.968 5.5317333333333325 4.377599999999999 11.874133333333333 7.6224 18.662399999999998 9.542399999999999 6.788266666666666 1.9221333333333332 13.888 2.4874666666666663 20.893866666666668 1.6618666666666666s13.781333333333333 -3.0250666666666666 19.933866666666667 -6.474666666666666c1.0858666666666665 -12.755199999999999 6.7712 -24.680533333333333 15.995733333333334 -33.5552 -55.8208 -6.271999999999999 -114.15039999999999 -27.9104 -114.15039999999999 -123.87199999999999 -0.352 -24.932266666666667 8.846933333333332 -49.056 25.7152 -67.42186666666666 -7.6693333333333324 -21.6704 -6.773333333333333 -45.452799999999996 2.5088 -66.4832 0 0 21.009066666666666 -6.5855999999999995 68.99199999999999 25.7152 41.0496 -11.2896 84.38613333333333 -11.2896 125.43786666666666 0 47.980799999999995 -32.614399999999996 68.99199999999999 -25.7152 68.99199999999999 -25.7152 9.282133333333332 21.0304 10.180266666666666 44.812799999999996 2.5088 66.4832 16.9152 18.333866666666665 26.12693333333333 42.48106666666666 25.7152 67.42186666666666 0 96.2752 -58.64319999999999 117.6 -114.464 123.87199999999999 5.986133333333333 6.0672 10.596266666666665 13.354666666666667 13.518933333333333 21.361066666666666 2.9226666666666667 8.010666666666665 4.087466666666666 16.554666666666666 3.415466666666666 25.05173333333333 0 33.55733333333333 -0.3136 60.522666666666666 -0.3136 68.98986666666667 0 6.5855999999999995 4.704 14.4256 17.247999999999998 11.916799999999999 56.413866666666664 -18.993066666666664 104.24106666666667 -57.41866666666667 134.944 -108.41386666666666 30.705066666666667 -50.99733333333333 42.2848 -111.24693333333332 32.67626666666666 -169.9925333333333 -9.608533333333334 -58.74346666666666 -39.78026666666666 -112.16213333333333 -85.1328 -150.71786666666665C373.10293333333334 32.52693333333333 315.5242666666667 11.342933333333331 255.99786666666665 11.310933333333333Z" fill="#000000" stroke-width="21.3333"></path></svg>