<svg fill="currentColor" xmlns="http://www.w3.org/2000/svg" fill="none" viewBox="0 0 512 512" id="Linkedin--Streamline-Core" height="512" width="512"><desc>Linkedin Streamline Icon: https://streamlinehq.com</desc><g id="linkedin--network-linkedin-professional"><path id="Union" fill="#000000" fill-rule="evenodd" d="M106.54829714285714 86.36598857142856c9.478217142857142 -9.770422857142856 14.732434285714284 -22.877257142857143 14.626377142857143 -36.489508571428566 -0.4933485714285714 -13.204479999999998 -6.0123428571428565 -25.721782857142856 -15.428022857142857 -34.992639999999994C96.33097142857142 5.612946285714286 83.72955428571429 0.28883346285714284 70.51885714285714 0c-13.249462857142856 0.2835401142857143 -25.895131428571425 5.594477714285714 -35.37408 14.856191999999998 -9.478765714285714 9.261714285714284 -15.081216 21.78106514285714 -15.671551999999998 35.020288 0.19068342857142856 13.588845714285714 5.594477714285714 26.584502857142855 15.09456457142857 36.30226285714286 9.500050285714286 9.71776 22.370267428571427 15.414125714285714 35.95106742857143 15.912594285714285 13.60896 -0.30683428571428567 26.55085714285714 -5.955291428571429 36.029439999999994 -15.72534857142857ZM61.03259428571428 169.36228571428572c-21.449142857142856 -0.4860342857142857 -36.10411885714286 -0.8177371428571428 -36.10411885714286 25.468342857142858v292.24594285714284c0 25.74262857142857 13.974747428571428 25.208685714285714 34.11280457142857 24.444342857142857 3.6399542857142855 -0.13897142857142855 7.481051428571428 -0.2852571428571428 11.477577142857143 -0.2852571428571428 4.003839999999999 0 7.842377142857142 0.14628571428571427 11.472822857142855 0.2852571428571428 20.04150857142857 0.764342857142857 33.728 1.2873142857142856 33.728 -24.444342857142857V194.83062857142855c0 -26.280594285714283 -14.349897142857142 -25.954377142857144 -35.717485714285715 -25.468708571428568 -3.0270171428571424 0.06875428571428571 -6.1952 0.1408 -9.483337142857142 0.1408 -3.2830171428571426 0 -6.452662857142857 -0.07168 -9.486262857142856 -0.1404342857142857Zm149.37417142857143 0.5306514285714286c-9.741531428571427 1.94816 -15.975862857142857 8.182857142857143 -15.975862857142857 24.93805714285714v292.24557714285714c0 25.71702857142857 13.391725714285714 25.212342857142858 33.56525714285714 24.444342857142857 3.6677485714285716 -0.13897142857142855 7.559314285714285 -0.2852571428571428 11.6352 -0.2852571428571428 4.068937142857142 0 7.963062857142856 0.14628571428571427 11.64032 0.2852571428571428 20.270445714285714 0.768 33.95035428571428 1.2836571428571428 33.95035428571428 -24.444342857142857V331.21243428571427c-0.7753142857142856 -7.964525714285714 0.14994285714285716 -16.002925714285713 2.7150628571428572 -23.583085714285716 2.5647542857142853 -7.579794285714286 6.710491428571427 -14.528731428571428 12.162925714285713 -20.386011428571425 5.452068571428571 -5.857645714285714 12.086125714285714 -10.49014857142857 19.463314285714286 -13.59104 7.377188571428571 -3.100525714285714 15.328548571428572 -4.599222857142857 23.32854857142857 -4.395885714285714 8.036937142857143 -0.4765257142857143 16.082285714285714 0.782262857142857 23.5904 3.690422857142857 7.508114285714286 2.9081599999999996 14.299428571428571 7.398034285714285 19.920457142857142 13.164251428571427 5.617371428571428 5.766582857142856 9.929142857142857 12.67456 12.642742857142856 20.255085714285713 2.709942857142857 7.58016 3.759542857142857 15.655497142857143 3.0756571428571426 23.677439999999997v155.8626742857143c0 25.720685714285715 13.392457142857143 25.212342857142858 33.56525714285714 24.447999999999997 3.6681142857142857 -0.13897142857142855 7.559314285714285 -0.28891428571428573 11.633371428571428 -0.28891428571428573 4.077714285714285 0 7.968914285714286 0.14994285714285716 11.63702857142857 0.28891428571428573 20.1728 0.764342857142857 33.56525714285714 1.2726857142857142 33.56525714285714 -24.447999999999997V286.40146285714286c0.7424 -16.380342857142857 -1.9712 -32.733622857142855 -7.965257142857142 -47.99707428571428 -5.990399999999999 -15.263817142857143 -15.125942857142856 -29.095862857142855 -26.810514285714284 -40.59830857142857 -11.68822857142857 -11.502445714285715 -25.662171428571426 -20.417828571428572 -41.01851428571428 -26.166491428571426 -15.356342857142856 -5.748662857142857 -31.751314285714283 -8.202605714285713 -48.11702857142857 -7.202011428571428 -16.668525714285714 -1.5155199999999998 -33.44566857142857 1.271222857142857 -48.72777142857143 8.093622857142856 -15.28246857142857 6.822399999999999 -28.558262857142854 17.45225142857143 -38.55762285714286 30.872502857142855 0.38948571428571427 -14.417554285714285 -4.286537142857142 -33.51076571428571 -15.976228571428571 -33.51076571428571 -3.3517714285714284 0 -8.498102857142856 -0.16018285714285715 -14.363428571428571 -0.34303999999999996 -14.589805714285713 -0.4542171428571429 -33.63072 -1.0466742857142857 -40.57892571428571 0.34303999999999996Z" clip-rule="evenodd" stroke-width="36.5714"></path></g></svg>